<svg width="680" height="640" viewBox="0 0 680 640" xmlns="http://www.w3.org/2000/svg">
  <defs>
    <linearGradient id="hullGrad" x1="0%" y1="0%" x2="0%" y2="100%">
      <stop offset="0%" stop-color="#f0f6ff"/>
      <stop offset="40%" stop-color="#c8deff"/>
      <stop offset="100%" stop-color="#8ab4f8"/>
    </linearGradient>
    <linearGradient id="cockpitGrad" x1="0%" y1="0%" x2="100%" y2="100%">
      <stop offset="0%" stop-color="#fffde0"/>
      <stop offset="50%" stop-color="#ffe066"/>
      <stop offset="100%" stop-color="#ffaa00"/>
    </linearGradient>
    <linearGradient id="wingGrad" x1="0%" y1="0%" x2="0%" y2="100%">
      <stop offset="0%" stop-color="#e8f4ff"/>
      <stop offset="100%" stop-color="#6fa8f5"/>
    </linearGradient>
    <linearGradient id="engineGrad" x1="0%" y1="0%" x2="100%" y2="0%">
      <stop offset="0%" stop-color="#ff9500"/>
      <stop offset="50%" stop-color="#ffdd00"/>
      <stop offset="100%" stop-color="#ff6a00"/>
    </linearGradient>
    <linearGradient id="thrustGrad" x1="0%" y1="0%" x2="0%" y2="100%">
      <stop offset="0%" stop-color="#ffffff" stop-opacity="1"/>
      <stop offset="40%" stop-color="#ffe066" stop-opacity="0.9"/>
      <stop offset="80%" stop-color="#ff8800" stop-opacity="0.5"/>
      <stop offset="100%" stop-color="#ff4400" stop-opacity="0"/>
    </linearGradient>
    <linearGradient id="thrustGrad2" x1="0%" y1="0%" x2="0%" y2="100%">
      <stop offset="0%" stop-color="#ffffff" stop-opacity="0.9"/>
      <stop offset="50%" stop-color="#88ccff" stop-opacity="0.6"/>
      <stop offset="100%" stop-color="#0066ff" stop-opacity="0"/>
    </linearGradient>
    <linearGradient id="accentRed" x1="0%" y1="0%" x2="100%" y2="0%">
      <stop offset="0%" stop-color="#ff4444"/>
      <stop offset="100%" stop-color="#ff8888"/>
    </linearGradient>
    <linearGradient id="accentBlue" x1="0%" y1="0%" x2="100%" y2="0%">
      <stop offset="0%" stop-color="#4488ff"/>
      <stop offset="100%" stop-color="#88ccff"/>
    </linearGradient>
  </defs>

  <ellipse cx="218" cy="585" rx="18" ry="52" fill="url(#thrustGrad)"/>
  <ellipse cx="218" cy="585" rx="10" ry="38" fill="#fff9e0" opacity="0.7"/>
  <ellipse cx="462" cy="585" rx="18" ry="52" fill="url(#thrustGrad)"/>
  <ellipse cx="462" cy="585" rx="10" ry="38" fill="#fff9e0" opacity="0.7"/>
  <ellipse cx="340" cy="590" rx="26" ry="60" fill="url(#thrustGrad)"/>
  <ellipse cx="340" cy="590" rx="14" ry="45" fill="#fffbe8" opacity="0.8"/>
  <ellipse cx="340" cy="590" rx="6" ry="28" fill="#ffffff" opacity="0.9"/>
  <ellipse cx="150" cy="440" rx="10" ry="28" fill="url(#thrustGrad2)" opacity="0.7"/>
  <ellipse cx="530" cy="440" rx="10" ry="28" fill="url(#thrustGrad2)" opacity="0.7"/>

  <path d="M200,390 Q130,370 80,410 Q60,440 90,460 Q140,480 210,460 Q230,440 220,410Z" fill="url(#wingGrad)" stroke="#aaccff" stroke-width="1"/>
  <path d="M170,395 Q120,400 90,430" fill="none" stroke="#ff4444" stroke-width="3" stroke-linecap="round"/>
  <path d="M175,410 Q128,415 100,442" fill="none" stroke="#ff4444" stroke-width="2" stroke-linecap="round" opacity="0.5"/>
  <path d="M195,400 Q155,405 110,435" fill="none" stroke="#aaccee" stroke-width="0.8" opacity="0.7"/>
  <path d="M190,418 Q152,422 115,448" fill="none" stroke="#aaccee" stroke-width="0.8" opacity="0.7"/>
  <circle cx="82" cy="435" r="6" fill="#ff4455"/>
  <circle cx="82" cy="435" r="3" fill="#ffaaaa"/>

  <path d="M480,390 Q550,370 600,410 Q620,440 590,460 Q540,480 470,460 Q450,440 460,410Z" fill="url(#wingGrad)" stroke="#aaccff" stroke-width="1"/>
  <path d="M510,395 Q560,400 590,430" fill="none" stroke="#ff4444" stroke-width="3" stroke-linecap="round"/>
  <path d="M505,410 Q552,415 580,442" fill="none" stroke="#ff4444" stroke-width="2" stroke-linecap="round" opacity="0.5"/>
  <path d="M485,400 Q525,405 570,435" fill="none" stroke="#aaccee" stroke-width="0.8" opacity="0.7"/>
  <path d="M490,418 Q528,422 565,448" fill="none" stroke="#aaccee" stroke-width="0.8" opacity="0.7"/>
  <circle cx="598" cy="435" r="6" fill="#ff4455"/>
  <circle cx="598" cy="435" r="3" fill="#ffaaaa"/>

  <path d="M230,270 Q170,240 110,200 Q90,185 100,175 Q115,168 145,190 Q200,230 245,265Z" fill="url(#wingGrad)" stroke="#aaccff" stroke-width="0.8"/>
  <path d="M220,262 Q165,230 112,192" fill="none" stroke="#4488ff" stroke-width="2" stroke-linecap="round"/>
  <circle cx="103" cy="178" r="4" fill="#44aaff"/>

  <path d="M450,270 Q510,240 570,200 Q590,185 580,175 Q565,168 535,190 Q480,230 435,265Z" fill="url(#wingGrad)" stroke="#aaccff" stroke-width="0.8"/>
  <path d="M460,262 Q515,230 568,192" fill="none" stroke="#4488ff" stroke-width="2" stroke-linecap="round"/>
  <circle cx="577" cy="178" r="4" fill="#44aaff"/>

  <path d="M260,110 Q280,80 340,68 Q400,80 420,110 Q450,160 455,240 Q460,340 455,430 Q445,490 420,520 Q390,540 340,545 Q290,540 260,520 Q235,490 225,430 Q220,340 225,240 Q230,160 260,110Z" fill="url(#hullGrad)" stroke="#b0ccff" stroke-width="1.2"/>

  <path d="M290,130 Q340,120 390,130" fill="none" stroke="#ccdeff" stroke-width="0.8"/>
  <path d="M280,180 Q340,168 400,180" fill="none" stroke="#ccdeff" stroke-width="0.8"/>
  <path d="M272,240 Q340,226 408,240" fill="none" stroke="#ccdeff" stroke-width="0.8"/>
  <path d="M268,300 Q340,288 412,300" fill="none" stroke="#ccdeff" stroke-width="0.8"/>
  <path d="M268,360 Q340,350 412,360" fill="none" stroke="#ccdeff" stroke-width="0.8"/>
  <path d="M272,420 Q340,410 408,420" fill="none" stroke="#ccdeff" stroke-width="0.8"/>
  <path d="M280,470 Q340,462 400,470" fill="none" stroke="#ccdeff" stroke-width="0.8"/>
  <path d="M340,68 Q340,300 340,545" fill="none" stroke="#d0e4ff" stroke-width="0.6" stroke-dasharray="6,5"/>

  <path d="M255,200 Q248,340 252,450" fill="none" stroke="url(#accentRed)" stroke-width="4" stroke-linecap="round"/>
  <path d="M425,200 Q432,340 428,450" fill="none" stroke="url(#accentRed)" stroke-width="4" stroke-linecap="round"/>
  <path d="M270,220 Q264,340 268,440" fill="none" stroke="url(#accentBlue)" stroke-width="2" stroke-linecap="round" opacity="0.7"/>
  <path d="M410,220 Q416,340 412,440" fill="none" stroke="url(#accentBlue)" stroke-width="2" stroke-linecap="round" opacity="0.7"/>

  <ellipse cx="340" cy="140" rx="52" ry="62" fill="#e8f0ff" stroke="#aaccff" stroke-width="1"/>
  <ellipse cx="340" cy="138" rx="42" ry="52" fill="url(#cockpitGrad)" opacity="0.9"/>
  <ellipse cx="326" cy="118" rx="16" ry="20" fill="#ffffff" opacity="0.45"/>
  <ellipse cx="318" cy="112" rx="7" ry="9" fill="#ffffff" opacity="0.5"/>
  <ellipse cx="340" cy="140" rx="52" ry="62" fill="none" stroke="#88aaff" stroke-width="1.5"/>

  <path d="M315,78 Q340,52 365,78 Q355,88 340,90 Q325,88 315,78Z" fill="#d0e8ff" stroke="#aaccff" stroke-width="0.8"/>
  <circle cx="340" cy="62" r="5" fill="#ffffff"/>
  <circle cx="340" cy="62" r="3" fill="#ffe066"/>

  <ellipse cx="248" cy="390" rx="22" ry="40" fill="#c8deff" stroke="#aaccff" stroke-width="0.8"/>
  <ellipse cx="432" cy="390" rx="22" ry="40" fill="#c8deff" stroke="#aaccff" stroke-width="0.8"/>

  <rect x="190" y="480" width="56" height="90" rx="12" fill="#d8eaff" stroke="#aaccff" stroke-width="1"/>
  <rect x="196" y="480" width="44" height="16" rx="4" fill="#b0ccf0"/>
  <rect x="196" y="540" width="44" height="14" rx="4" fill="url(#engineGrad)"/>
  <line x1="200" y1="500" x2="236" y2="500" stroke="#9ab8e0" stroke-width="1.2"/>
  <line x1="200" y1="508" x2="236" y2="508" stroke="#9ab8e0" stroke-width="1.2"/>
  <line x1="200" y1="516" x2="236" y2="516" stroke="#9ab8e0" stroke-width="1.2"/>
  <line x1="200" y1="524" x2="236" y2="524" stroke="#9ab8e0" stroke-width="1.2"/>
  <line x1="200" y1="532" x2="236" y2="532" stroke="#9ab8e0" stroke-width="1.2"/>
  <ellipse cx="218" cy="570" rx="20" ry="8" fill="#ffcc44" stroke="#ff9900" stroke-width="1"/>
  <ellipse cx="218" cy="570" rx="12" ry="5" fill="#ffffff" opacity="0.6"/>

  <rect x="434" y="480" width="56" height="90" rx="12" fill="#d8eaff" stroke="#aaccff" stroke-width="1"/>
  <rect x="440" y="480" width="44" height="16" rx="4" fill="#b0ccf0"/>
  <rect x="440" y="540" width="44" height="14" rx="4" fill="url(#engineGrad)"/>
  <line x1="444" y1="500" x2="480" y2="500" stroke="#9ab8e0" stroke-width="1.2"/>
  <line x1="444" y1="508" x2="480" y2="508" stroke="#9ab8e0" stroke-width="1.2"/>
  <line x1="444" y1="516" x2="480" y2="516" stroke="#9ab8e0" stroke-width="1.2"/>
  <line x1="444" y1="524" x2="480" y2="524" stroke="#9ab8e0" stroke-width="1.2"/>
  <line x1="444" y1="532" x2="480" y2="532" stroke="#9ab8e0" stroke-width="1.2"/>
  <ellipse cx="462" cy="570" rx="20" ry="8" fill="#ffcc44" stroke="#ff9900" stroke-width="1"/>
  <ellipse cx="462" cy="570" rx="12" ry="5" fill="#ffffff" opacity="0.6"/>

  <rect x="308" y="500" width="64" height="50" rx="10" fill="#c8dcff" stroke="#aaccff" stroke-width="1"/>
  <rect x="314" y="500" width="52" height="12" rx="4" fill="#a8c4f0"/>
  <rect x="314" y="530" width="52" height="14" rx="4" fill="url(#engineGrad)"/>
  <line x1="316" y1="516" x2="364" y2="516" stroke="#9ab8e0" stroke-width="1.2"/>
  <line x1="316" y1="523" x2="364" y2="523" stroke="#9ab8e0" stroke-width="1.2"/>
  <ellipse cx="340" cy="550" rx="24" ry="9" fill="#ffcc44" stroke="#ff9900" stroke-width="1.2"/>
  <ellipse cx="340" cy="550" rx="14" ry="5" fill="#ffffff" opacity="0.7"/>

  <rect x="118" y="410" width="34" height="50" rx="8" fill="#cce0ff" stroke="#aaccff" stroke-width="0.8"/>
  <ellipse cx="135" cy="460" rx="13" ry="5" fill="#88ccff" stroke="#44aaff" stroke-width="0.8"/>
  <rect x="528" y="410" width="34" height="50" rx="8" fill="#cce0ff" stroke="#aaccff" stroke-width="0.8"/>
  <ellipse cx="545" cy="460" rx="13" ry="5" fill="#88ccff" stroke="#44aaff" stroke-width="0.8"/>

  <circle cx="305" cy="320" r="10" fill="#e0f0ff" stroke="#88aaff" stroke-width="1"/>
  <circle cx="305" cy="320" r="6" fill="#aaddff" opacity="0.8"/>
  <circle cx="375" cy="320" r="10" fill="#e0f0ff" stroke="#88aaff" stroke-width="1"/>
  <circle cx="375" cy="320" r="6" fill="#aaddff" opacity="0.8"/>
  <circle cx="340" cy="380" r="8" fill="#ffe066" stroke="#ffaa00" stroke-width="1"/>
  <circle cx="340" cy="380" r="4" fill="#ffffff" opacity="0.8"/>

  <line x1="340" y1="52" x2="340" y2="30" stroke="#88aacc" stroke-width="1.5" stroke-linecap="round"/>
  <circle cx="340" cy="28" r="4" fill="#ff4455"/>
  <circle cx="340" cy="28" r="2" fill="#ffaaaa"/>
  <line x1="340" y1="38" x2="322" y2="26" stroke="#88aacc" stroke-width="1" stroke-linecap="round"/>
  <line x1="340" y1="38" x2="358" y2="26" stroke="#88aacc" stroke-width="1" stroke-linecap="round"/>
  <circle cx="322" cy="26" r="2.5" fill="#44aaff"/>
  <circle cx="358" cy="26" r="2.5" fill="#44aaff"/>

  <path d="M295,115 Q320,100 340,98 Q355,100 362,110 Q348,120 340,122 Q320,118 295,115Z" fill="#ffffff" opacity="0.35"/>
</svg>
